<svg xmlns="http://www.w3.org/2000/svg" version="1.1" xmlns:xlink="http://www.w3.org/1999/xlink" xmlns:svgjs="http://svgjs.dev/svgjs" width="1440" height="560" preserveAspectRatio="none" viewBox="0 0 1440 560"><g mask="url(&quot;#SvgjsMask1008&quot;)" fill="none"><path d="M200.39 203.54L200.39 207.27L233.3 207.27L233.3 203.54zM226.7 205.4 a6.6 6.6 0 1 0 13.2 0 a6.6 6.6 0 1 0 -13.2 0zM195.68 230.92L194.26 234.36L216.92 243.75L218.34 240.3zM211.03 242.02 a6.6 6.6 0 1 0 13.2 0 a6.6 6.6 0 1 0 -13.2 0zM180.86 254.41L178.22 257.04L201.97 280.79L204.6 278.15zM196.69 279.47 a6.6 6.6 0 1 0 13.2 0 a6.6 6.6 0 1 0 -13.2 0zM158.17 270.44L154.73 271.87L164.6 295.69L168.04 294.27zM159.72 294.98 a6.6 6.6 0 1 0 13.2 0 a6.6 6.6 0 1 0 -13.2 0zM131.08 276.57L127.35 276.57L127.35 290.16L131.08 290.16zM122.62 290.16 a6.6 6.6 0 1 0 13.2 0 a6.6 6.6 0 1 0 -13.2 0zM103.7 271.87L100.26 270.44L88.74 298.25L92.18 299.68zM83.86 298.96 a6.6 6.6 0 1 0 13.2 0 a6.6 6.6 0 1 0 -13.2 0zM80.21 257.04L77.57 254.41L53.75 278.23L56.39 280.87zM48.47 279.55 a6.6 6.6 0 1 0 13.2 0 a6.6 6.6 0 1 0 -13.2 0zM64.18 234.36L62.75 230.92L30.41 244.31L31.83 247.76zM24.52 246.03 a6.6 6.6 0 1 0 13.2 0 a6.6 6.6 0 1 0 -13.2 0zM58.05 207.27L58.05 203.54L38.7 203.54L38.7 207.27zM32.1 205.4 a6.6 6.6 0 1 0 13.2 0 a6.6 6.6 0 1 0 -13.2 0zM62.75 179.89L64.18 176.44L48.47 169.94L47.05 173.38zM41.16 171.66 a6.6 6.6 0 1 0 13.2 0 a6.6 6.6 0 1 0 -13.2 0zM77.57 156.4L80.21 153.76L64.89 138.44L62.25 141.07zM56.97 139.75 a6.6 6.6 0 1 0 13.2 0 a6.6 6.6 0 1 0 -13.2 0zM100.26 140.36L103.7 138.94L96 120.34L92.56 121.77zM87.68 121.05 a6.6 6.6 0 1 0 13.2 0 a6.6 6.6 0 1 0 -13.2 0zM127.35 134.23L131.08 134.23L131.08 110.94L127.35 110.94zM122.62 110.94 a6.6 6.6 0 1 0 13.2 0 a6.6 6.6 0 1 0 -13.2 0zM154.73 138.94L158.17 140.36L165.6 122.43L162.16 121zM157.28 121.72 a6.6 6.6 0 1 0 13.2 0 a6.6 6.6 0 1 0 -13.2 0zM178.22 153.76L180.86 156.4L196.85 140.4L194.22 137.76zM188.94 139.08 a6.6 6.6 0 1 0 13.2 0 a6.6 6.6 0 1 0 -13.2 0zM194.26 176.44L195.68 179.89L219.43 170.05L218.01 166.61zM212.12 168.33 a6.6 6.6 0 1 0 13.2 0 a6.6 6.6 0 1 0 -13.2 0zM58.03 205.4 a71.19 71.19 0 1 0 142.38 0 a71.19 71.19 0 1 0 -142.38 0z" fill="#488fdb"></path><path d="M63.9 233.72 A70.1936 70.1936 0 0 1 137.2 134.66M137.2 134.66 A142.3872 142.3872 0 0 0 63.9 233.72" fill="#2672c3" fill-rule="nonzero"></path><path d="M122.81 230.21 a14.24 14.24 0 1 0 28.48 0 a14.24 14.24 0 1 0 -28.48 0zM163.87 217.08 a9.97 9.97 0 1 0 19.94 0 a9.97 9.97 0 1 0 -19.94 0zM66.2 229.08 a14.24 14.24 0 1 0 28.48 0 a14.24 14.24 0 1 0 -28.48 0zM152.51 155.34 a10.68 10.68 0 1 0 21.36 0 a10.68 10.68 0 1 0 -21.36 0zM122.05 180.32 a12.81 12.81 0 1 0 25.62 0 a12.81 12.81 0 1 0 -25.62 0zM72.8 164.93 a7.83 7.83 0 1 0 15.66 0 a7.83 7.83 0 1 0 -15.66 0zM101.01 265.72 a6.41 6.41 0 1 0 12.82 0 a6.41 6.41 0 1 0 -12.82 0zM177.45 180.19 a7.83 7.83 0 1 0 15.66 0 a7.83 7.83 0 1 0 -15.66 0zM82.56 190.66 a3.56 3.56 0 1 0 7.12 0 a3.56 3.56 0 1 0 -7.12 0zM102.86 166.69 a2.85 2.85 0 1 0 5.7 0 a2.85 2.85 0 1 0 -5.7 0z" fill="#2672c3" fill-rule="nonzero"></path><path d="M800.73 152.28L800.73 156L819.06 156L819.06 152.28zM812.46 154.14 a6.6 6.6 0 1 0 13.2 0 a6.6 6.6 0 1 0 -13.2 0zM796.03 179.65L794.6 183.1L809.51 189.27L810.94 185.83zM803.63 187.55 a6.6 6.6 0 1 0 13.2 0 a6.6 6.6 0 1 0 -13.2 0zM781.21 203.15L778.57 205.78L794.52 221.74L797.16 219.1zM789.24 220.42 a6.6 6.6 0 1 0 13.2 0 a6.6 6.6 0 1 0 -13.2 0zM758.52 219.18L755.08 220.61L760.91 234.69L764.35 233.26zM756.03 233.97 a6.6 6.6 0 1 0 13.2 0 a6.6 6.6 0 1 0 -13.2 0zM731.43 225.31L727.7 225.31L727.7 235.27L731.43 235.27zM722.96 235.27 a6.6 6.6 0 1 0 13.2 0 a6.6 6.6 0 1 0 -13.2 0zM704.05 220.61L700.61 219.18L687.76 250.2L691.2 251.63zM682.88 250.92 a6.6 6.6 0 1 0 13.2 0 a6.6 6.6 0 1 0 -13.2 0zM680.56 205.78L677.92 203.15L660.01 221.06L662.65 223.69zM654.73 222.38 a6.6 6.6 0 1 0 13.2 0 a6.6 6.6 0 1 0 -13.2 0zM664.52 183.1L663.1 179.65L648.36 185.76L649.79 189.2zM642.48 187.48 a6.6 6.6 0 1 0 13.2 0 a6.6 6.6 0 1 0 -13.2 0zM658.39 156L658.39 152.28L643.04 152.28L643.04 156zM636.44 154.14 a6.6 6.6 0 1 0 13.2 0 a6.6 6.6 0 1 0 -13.2 0zM663.1 128.63L664.52 125.18L651.05 119.6L649.62 123.04zM643.73 121.32 a6.6 6.6 0 1 0 13.2 0 a6.6 6.6 0 1 0 -13.2 0zM677.92 105.13L680.56 102.5L657.32 79.26L654.69 81.9zM649.4 80.58 a6.6 6.6 0 1 0 13.2 0 a6.6 6.6 0 1 0 -13.2 0zM700.61 89.1L704.05 87.68L693.27 61.65L689.83 63.08zM684.95 62.36 a6.6 6.6 0 1 0 13.2 0 a6.6 6.6 0 1 0 -13.2 0zM727.7 82.97L731.43 82.97L731.43 70.52L727.7 70.52zM722.96 70.52 a6.6 6.6 0 1 0 13.2 0 a6.6 6.6 0 1 0 -13.2 0zM755.08 87.68L758.52 89.1L771.55 57.63L768.11 56.21zM763.23 56.92 a6.6 6.6 0 1 0 13.2 0 a6.6 6.6 0 1 0 -13.2 0zM778.57 102.5L781.21 105.13L804.72 81.62L802.09 78.98zM796.81 80.3 a6.6 6.6 0 1 0 13.2 0 a6.6 6.6 0 1 0 -13.2 0zM794.6 125.18L796.03 128.63L827.89 115.43L826.47 111.99zM820.58 113.71 a6.6 6.6 0 1 0 13.2 0 a6.6 6.6 0 1 0 -13.2 0zM658.37 154.14 a71.19 71.19 0 1 0 142.38 0 a71.19 71.19 0 1 0 -142.38 0z" fill="rgba(18, 219, 174, 1)"></path><path d="M763.99 216.46 A70.1936 70.1936 0 0 1 658.38 152.95M658.38 152.95 A142.3872 142.3872 0 0 0 763.99 216.46" fill="#0eaf8b" fill-rule="nonzero"></path><path d="M739.45 125.12 a14.24 14.24 0 1 0 28.48 0 a14.24 14.24 0 1 0 -28.48 0zM736.27 93.39 a4.98 4.98 0 1 0 9.96 0 a4.98 4.98 0 1 0 -9.96 0zM752.05 164.68 a12.1 12.1 0 1 0 24.2 0 a12.1 12.1 0 1 0 -24.2 0zM725.93 167.24 a5.7 5.7 0 1 0 11.4 0 a5.7 5.7 0 1 0 -11.4 0zM713.36 205.07 a14.24 14.24 0 1 0 28.48 0 a14.24 14.24 0 1 0 -28.48 0zM667.68 184.99 a13.53 13.53 0 1 0 27.06 0 a13.53 13.53 0 1 0 -27.06 0zM757.4 207.18 a7.12 7.12 0 1 0 14.24 0 a7.12 7.12 0 1 0 -14.24 0zM700.28 158.09 a6.41 6.41 0 1 0 12.82 0 a6.41 6.41 0 1 0 -12.82 0zM670.37 148.53 a8.54 8.54 0 1 0 17.08 0 a8.54 8.54 0 1 0 -17.08 0zM713.25 95.03 a4.27 4.27 0 1 0 8.54 0 a4.27 4.27 0 1 0 -8.54 0z" fill="#0eaf8b" fill-rule="nonzero"></path><path d="M1137.21 360.65L1137.21 364.38L1164.36 364.38L1164.36 360.65zM1157.76 362.51 a6.6 6.6 0 1 0 13.2 0 a6.6 6.6 0 1 0 -13.2 0zM1132.51 388.03L1131.08 391.47L1148.92 398.86L1150.35 395.42zM1143.04 397.14 a6.6 6.6 0 1 0 13.2 0 a6.6 6.6 0 1 0 -13.2 0zM1117.69 411.52L1115.05 414.16L1136.35 435.45L1138.99 432.82zM1131.07 434.14 a6.6 6.6 0 1 0 13.2 0 a6.6 6.6 0 1 0 -13.2 0zM1095 427.55L1091.56 428.98L1101.97 454.12L1105.42 452.69zM1097.09 453.4 a6.6 6.6 0 1 0 13.2 0 a6.6 6.6 0 1 0 -13.2 0zM1067.91 433.68L1064.18 433.68L1064.18 455.46L1067.91 455.46zM1059.45 455.46 a6.6 6.6 0 1 0 13.2 0 a6.6 6.6 0 1 0 -13.2 0zM1040.53 428.98L1037.09 427.55L1032.62 438.33L1036.07 439.76zM1027.74 439.05 a6.6 6.6 0 1 0 13.2 0 a6.6 6.6 0 1 0 -13.2 0zM1017.04 414.16L1014.4 411.52L1005.3 420.63L1007.93 423.26zM1000.01 421.95 a6.6 6.6 0 1 0 13.2 0 a6.6 6.6 0 1 0 -13.2 0zM1001.01 391.47L999.58 388.03L981.42 395.55L982.84 398.99zM975.53 397.27 a6.6 6.6 0 1 0 13.2 0 a6.6 6.6 0 1 0 -13.2 0zM994.88 364.38L994.88 360.65L962.63 360.65L962.63 364.38zM956.03 362.51 a6.6 6.6 0 1 0 13.2 0 a6.6 6.6 0 1 0 -13.2 0zM999.58 337L1001.01 333.56L980.57 325.09L979.14 328.54zM973.26 326.81 a6.6 6.6 0 1 0 13.2 0 a6.6 6.6 0 1 0 -13.2 0zM1014.4 313.51L1017.04 310.87L993.76 287.59L991.13 290.23zM985.84 288.91 a6.6 6.6 0 1 0 13.2 0 a6.6 6.6 0 1 0 -13.2 0zM1037.09 297.48L1040.53 296.05L1027.55 264.71L1024.11 266.14zM1019.23 265.42 a6.6 6.6 0 1 0 13.2 0 a6.6 6.6 0 1 0 -13.2 0zM1064.18 291.34L1067.91 291.34L1067.91 276.32L1064.18 276.32zM1059.45 276.32 a6.6 6.6 0 1 0 13.2 0 a6.6 6.6 0 1 0 -13.2 0zM1091.56 296.05L1095 297.48L1102.99 278.18L1099.55 276.76zM1094.67 277.47 a6.6 6.6 0 1 0 13.2 0 a6.6 6.6 0 1 0 -13.2 0zM1115.05 310.87L1117.69 313.51L1133.83 297.36L1131.2 294.73zM1125.91 296.05 a6.6 6.6 0 1 0 13.2 0 a6.6 6.6 0 1 0 -13.2 0zM1131.08 333.56L1132.51 337L1160.11 325.57L1158.68 322.13zM1152.79 323.85 a6.6 6.6 0 1 0 13.2 0 a6.6 6.6 0 1 0 -13.2 0zM994.86 362.51 a71.19 71.19 0 1 0 142.38 0 a71.19 71.19 0 1 0 -142.38 0z" fill="rgba(18, 219, 174, 1)"></path><path d="M1089.18 429.84 A70.1936 70.1936 0 0 1 996.14 349.03M996.14 349.03 A142.3872 142.3872 0 0 0 1089.18 429.84" fill="#0eaf8b" fill-rule="nonzero"></path><path d="M1120.07 375.63 a7.83 7.83 0 1 0 15.66 0 a7.83 7.83 0 1 0 -15.66 0zM1071.59 369.4 a14.24 14.24 0 1 0 28.48 0 a14.24 14.24 0 1 0 -28.48 0zM1010.14 382.13 a14.24 14.24 0 1 0 28.48 0 a14.24 14.24 0 1 0 -28.48 0zM1053.71 299.95 a7.83 7.83 0 1 0 15.66 0 a7.83 7.83 0 1 0 -15.66 0zM1044.08 358.29 a7.12 7.12 0 1 0 14.24 0 a7.12 7.12 0 1 0 -14.24 0zM1048.49 400.18 a10.68 10.68 0 1 0 21.36 0 a10.68 10.68 0 1 0 -21.36 0zM1052.08 429.58 a2.85 2.85 0 1 0 5.7 0 a2.85 2.85 0 1 0 -5.7 0zM1036.68 317.21 a4.27 4.27 0 1 0 8.54 0 a4.27 4.27 0 1 0 -8.54 0zM1082.35 309.7 a4.98 4.98 0 1 0 9.96 0 a4.98 4.98 0 1 0 -9.96 0zM1010.11 344.93 a8.54 8.54 0 1 0 17.08 0 a8.54 8.54 0 1 0 -17.08 0z" fill="#0eaf8b" fill-rule="nonzero"></path><path d="M1186.6 64.87L1186.6 66.73L1193.93 66.73L1193.93 64.87zM1190.63 65.8 a3.3 3.3 0 1 0 6.6 0 a3.3 3.3 0 1 0 -6.6 0zM1184.25 78.56L1183.53 80.28L1198.19 86.35L1198.91 84.63zM1195.25 85.49 a3.3 3.3 0 1 0 6.6 0 a3.3 3.3 0 1 0 -6.6 0zM1176.83 90.3L1175.52 91.62L1186.16 102.26L1187.48 100.95zM1183.52 101.61 a3.3 3.3 0 1 0 6.6 0 a3.3 3.3 0 1 0 -6.6 0zM1165.49 98.32L1163.77 99.03L1170.38 115L1172.1 114.29zM1167.94 114.64 a3.3 3.3 0 1 0 6.6 0 a3.3 3.3 0 1 0 -6.6 0zM1151.95 101.39L1150.08 101.39L1150.08 117.06L1151.95 117.06zM1147.71 117.06 a3.3 3.3 0 1 0 6.6 0 a3.3 3.3 0 1 0 -6.6 0zM1138.26 99.03L1136.53 98.32L1130.66 112.5L1132.38 113.22zM1128.22 112.86 a3.3 3.3 0 1 0 6.6 0 a3.3 3.3 0 1 0 -6.6 0zM1126.51 91.62L1125.19 90.3L1118.13 97.37L1119.45 98.69zM1115.49 98.03 a3.3 3.3 0 1 0 6.6 0 a3.3 3.3 0 1 0 -6.6 0zM1118.49 80.28L1117.78 78.56L1112.15 80.89L1112.86 82.61zM1109.2 81.75 a3.3 3.3 0 1 0 6.6 0 a3.3 3.3 0 1 0 -6.6 0zM1115.43 66.73L1115.43 64.87L1102.55 64.87L1102.55 66.73zM1099.25 65.8 a3.3 3.3 0 1 0 6.6 0 a3.3 3.3 0 1 0 -6.6 0zM1117.78 53.04L1118.49 51.32L1112.56 48.87L1111.85 50.59zM1108.91 49.73 a3.3 3.3 0 1 0 6.6 0 a3.3 3.3 0 1 0 -6.6 0zM1125.19 41.3L1126.51 39.98L1115.27 28.74L1113.95 30.06zM1111.31 29.4 a3.3 3.3 0 1 0 6.6 0 a3.3 3.3 0 1 0 -6.6 0zM1136.53 33.28L1138.26 32.57L1133.93 22.12L1132.21 22.83zM1129.77 22.48 a3.3 3.3 0 1 0 6.6 0 a3.3 3.3 0 1 0 -6.6 0zM1150.08 30.22L1151.95 30.22L1151.95 15.57L1150.08 15.57zM1147.71 15.57 a3.3 3.3 0 1 0 6.6 0 a3.3 3.3 0 1 0 -6.6 0zM1163.77 32.57L1165.49 33.28L1167.62 28.15L1165.89 27.44zM1163.46 27.8 a3.3 3.3 0 1 0 6.6 0 a3.3 3.3 0 1 0 -6.6 0zM1175.52 39.98L1176.83 41.3L1187.64 30.49L1186.32 29.18zM1183.68 29.83 a3.3 3.3 0 1 0 6.6 0 a3.3 3.3 0 1 0 -6.6 0zM1183.53 51.32L1184.25 53.04L1188.91 51.11L1188.2 49.39zM1185.25 50.25 a3.3 3.3 0 1 0 6.6 0 a3.3 3.3 0 1 0 -6.6 0zM1115.41 65.8 a35.6 35.6 0 1 0 71.2 0 a35.6 35.6 0 1 0 -71.2 0z" fill="rgba(18, 219, 174, 1)"></path><path d="M1139.85 99.6 A34.5968 34.5968 0 0 1 1127.26 39.29M1127.26 39.29 A71.1936 71.1936 0 0 0 1139.85 99.6" fill="#0eaf8b" fill-rule="nonzero"></path><path d="M1162.45 37.51 a3.56 3.56 0 1 0 7.12 0 a3.56 3.56 0 1 0 -7.12 0zM1123.21 45.07 a3.92 3.92 0 1 0 7.84 0 a3.92 3.92 0 1 0 -7.84 0zM1130.85 72.43 a7.12 7.12 0 1 0 14.24 0 a7.12 7.12 0 1 0 -14.24 0zM1168.29 50.19 a2.85 2.85 0 1 0 5.7 0 a2.85 2.85 0 1 0 -5.7 0zM1165.21 78.96 a7.12 7.12 0 1 0 14.24 0 a7.12 7.12 0 1 0 -14.24 0zM1127.7 89.13 a3.56 3.56 0 1 0 7.12 0 a3.56 3.56 0 1 0 -7.12 0zM1148.6 62.21 a1.78 1.78 0 1 0 3.56 0 a1.78 1.78 0 1 0 -3.56 0zM1156.67 89.67 a2.49 2.49 0 1 0 4.98 0 a2.49 2.49 0 1 0 -4.98 0zM1141.52 93.53 a3.2 3.2 0 1 0 6.4 0 a3.2 3.2 0 1 0 -6.4 0zM1115.72 61.41 a3.56 3.56 0 1 0 7.12 0 a3.56 3.56 0 1 0 -7.12 0z" fill="#0eaf8b" fill-rule="nonzero"></path><path d="M1364.78 147.51L1364.78 149.38L1379.38 149.38L1379.38 147.51zM1376.08 148.44 a3.3 3.3 0 1 0 6.6 0 a3.3 3.3 0 1 0 -6.6 0zM1362.42 161.2L1361.71 162.92L1372.59 167.43L1373.31 165.71zM1369.65 166.57 a3.3 3.3 0 1 0 6.6 0 a3.3 3.3 0 1 0 -6.6 0zM1355.01 172.95L1353.69 174.26L1360.39 180.96L1361.71 179.64zM1357.75 180.3 a3.3 3.3 0 1 0 6.6 0 a3.3 3.3 0 1 0 -6.6 0zM1343.67 180.96L1341.95 181.68L1347.83 195.88L1349.55 195.16zM1345.39 195.52 a3.3 3.3 0 1 0 6.6 0 a3.3 3.3 0 1 0 -6.6 0zM1330.12 184.03L1328.26 184.03L1328.26 195.82L1330.12 195.82zM1325.89 195.82 a3.3 3.3 0 1 0 6.6 0 a3.3 3.3 0 1 0 -6.6 0zM1316.43 181.68L1314.71 180.96L1311.33 189.13L1313.05 189.84zM1308.89 189.49 a3.3 3.3 0 1 0 6.6 0 a3.3 3.3 0 1 0 -6.6 0zM1304.69 174.26L1303.37 172.95L1297.74 178.58L1299.06 179.89zM1295.1 179.23 a3.3 3.3 0 1 0 6.6 0 a3.3 3.3 0 1 0 -6.6 0zM1296.67 162.92L1295.96 161.2L1283.56 166.34L1284.27 168.06zM1280.62 167.2 a3.3 3.3 0 1 0 6.6 0 a3.3 3.3 0 1 0 -6.6 0zM1293.61 149.38L1293.61 147.51L1287.88 147.51L1287.88 149.38zM1284.58 148.44 a3.3 3.3 0 1 0 6.6 0 a3.3 3.3 0 1 0 -6.6 0zM1295.96 135.69L1296.67 133.96L1286.95 129.94L1286.24 131.66zM1283.3 130.8 a3.3 3.3 0 1 0 6.6 0 a3.3 3.3 0 1 0 -6.6 0zM1303.37 123.94L1304.69 122.62L1301.12 119.06L1299.81 120.38zM1297.16 119.72 a3.3 3.3 0 1 0 6.6 0 a3.3 3.3 0 1 0 -6.6 0zM1314.71 115.92L1316.43 115.21L1312.33 105.31L1310.61 106.02zM1308.17 105.66 a3.3 3.3 0 1 0 6.6 0 a3.3 3.3 0 1 0 -6.6 0zM1328.26 112.86L1330.12 112.86L1330.12 106.42L1328.26 106.42zM1325.89 106.42 a3.3 3.3 0 1 0 6.6 0 a3.3 3.3 0 1 0 -6.6 0zM1341.95 115.21L1343.67 115.92L1345.6 111.27L1343.88 110.55zM1341.44 110.91 a3.3 3.3 0 1 0 6.6 0 a3.3 3.3 0 1 0 -6.6 0zM1353.69 122.62L1355.01 123.94L1361.45 117.51L1360.13 116.19zM1357.49 116.85 a3.3 3.3 0 1 0 6.6 0 a3.3 3.3 0 1 0 -6.6 0zM1361.71 133.96L1362.42 135.69L1377.61 129.4L1376.9 127.67zM1373.96 128.53 a3.3 3.3 0 1 0 6.6 0 a3.3 3.3 0 1 0 -6.6 0zM1293.59 148.44 a35.6 35.6 0 1 0 71.2 0 a35.6 35.6 0 1 0 -71.2 0z" fill="rgba(18, 219, 174, 1)"></path><path d="M1363.18 137.86 A34.5968 34.5968 0 0 1 1321.44 183.19M1321.44 183.19 A71.1936 71.1936 0 0 0 1363.18 137.86" fill="#0eaf8b" fill-rule="nonzero"></path><path d="M1352.91 158.05 a4.98 4.98 0 1 0 9.96 0 a4.98 4.98 0 1 0 -9.96 0zM1313.56 138.75 a7.12 7.12 0 1 0 14.24 0 a7.12 7.12 0 1 0 -14.24 0zM1298.64 154.4 a7.12 7.12 0 1 0 14.24 0 a7.12 7.12 0 1 0 -14.24 0zM1344.43 130.02 a6.76 6.76 0 1 0 13.52 0 a6.76 6.76 0 1 0 -13.52 0zM1318.86 165.99 a7.12 7.12 0 1 0 14.24 0 a7.12 7.12 0 1 0 -14.24 0zM1338.81 142.75 a2.14 2.14 0 1 0 4.28 0 a2.14 2.14 0 1 0 -4.28 0zM1298.99 130.84 a2.85 2.85 0 1 0 5.7 0 a2.85 2.85 0 1 0 -5.7 0zM1315.83 117.97 a3.56 3.56 0 1 0 7.12 0 a3.56 3.56 0 1 0 -7.12 0zM1347.26 175.7 a1.78 1.78 0 1 0 3.56 0 a1.78 1.78 0 1 0 -3.56 0zM1330.54 121.71 a4.27 4.27 0 1 0 8.54 0 a4.27 4.27 0 1 0 -8.54 0z" fill="#0eaf8b" fill-rule="nonzero"></path><path d="M713.71 443.49L713.71 446.75L727.58 446.75L727.58 443.49zM721.8 445.12 a5.78 5.78 0 1 0 11.56 0 a5.78 5.78 0 1 0 -11.56 0zM709.59 467.45L708.34 470.46L717.09 474.08L718.34 471.07zM711.94 472.58 a5.78 5.78 0 1 0 11.56 0 a5.78 5.78 0 1 0 -11.56 0zM696.62 488L694.31 490.31L705.07 501.06L707.38 498.76zM700.44 499.91 a5.78 5.78 0 1 0 11.56 0 a5.78 5.78 0 1 0 -11.56 0zM676.77 502.03L673.76 503.28L683.92 527.82L686.94 526.57zM679.65 527.19 a5.78 5.78 0 1 0 11.56 0 a5.78 5.78 0 1 0 -11.56 0zM653.06 507.4L649.8 507.4L649.8 534.63L653.06 534.63zM645.65 534.63 a5.78 5.78 0 1 0 11.56 0 a5.78 5.78 0 1 0 -11.56 0zM629.11 503.28L626.1 502.03L622.4 510.96L625.41 512.2zM618.13 511.58 a5.78 5.78 0 1 0 11.56 0 a5.78 5.78 0 1 0 -11.56 0zM608.55 490.31L606.25 488L600.68 493.57L602.99 495.87zM596.06 494.72 a5.78 5.78 0 1 0 11.56 0 a5.78 5.78 0 1 0 -11.56 0zM594.53 470.46L593.28 467.45L567.21 478.24L568.46 481.26zM562.06 479.75 a5.78 5.78 0 1 0 11.56 0 a5.78 5.78 0 1 0 -11.56 0zM589.16 446.75L589.16 443.49L562.53 443.49L562.53 446.75zM556.75 445.12 a5.78 5.78 0 1 0 11.56 0 a5.78 5.78 0 1 0 -11.56 0zM593.28 422.8L594.53 419.79L586.08 416.29L584.83 419.3zM579.68 417.79 a5.78 5.78 0 1 0 11.56 0 a5.78 5.78 0 1 0 -11.56 0zM606.25 402.24L608.55 399.94L592.8 384.18L590.49 386.49zM585.87 385.34 a5.78 5.78 0 1 0 11.56 0 a5.78 5.78 0 1 0 -11.56 0zM626.1 388.21L629.11 386.97L621.45 368.48L618.44 369.73zM614.17 369.1 a5.78 5.78 0 1 0 11.56 0 a5.78 5.78 0 1 0 -11.56 0zM649.8 382.85L653.06 382.85L653.06 362.35L649.8 362.35zM645.65 362.35 a5.78 5.78 0 1 0 11.56 0 a5.78 5.78 0 1 0 -11.56 0zM673.76 386.97L676.77 388.21L684.19 370.31L681.17 369.06zM676.9 369.69 a5.78 5.78 0 1 0 11.56 0 a5.78 5.78 0 1 0 -11.56 0zM694.31 399.94L696.62 402.24L710.74 388.12L708.44 385.82zM703.81 386.97 a5.78 5.78 0 1 0 11.56 0 a5.78 5.78 0 1 0 -11.56 0zM708.34 419.79L709.59 422.8L729.99 414.35L728.74 411.34zM723.59 412.84 a5.78 5.78 0 1 0 11.56 0 a5.78 5.78 0 1 0 -11.56 0zM589.14 445.12 a62.29 62.29 0 1 0 124.58 0 a62.29 62.29 0 1 0 -124.58 0z" fill="rgba(18, 219, 174, 1)"></path><path d="M704.27 412.13 A61.294399999999996 61.294399999999996 0 0 1 653.72 507.38M653.72 507.38 A124.58879999999999 124.58879999999999 0 0 0 704.27 412.13" fill="#0eaf8b" fill-rule="nonzero"></path><path d="M655.33 476.01 a12.46 12.46 0 1 0 24.92 0 a12.46 12.46 0 1 0 -24.92 0zM635.52 411.61 a12.46 12.46 0 1 0 24.92 0 a12.46 12.46 0 1 0 -24.92 0zM635.7 502.85 a2.49 2.49 0 1 0 4.98 0 a2.49 2.49 0 1 0 -4.98 0zM619.83 396.44 a3.74 3.74 0 1 0 7.48 0 a3.74 3.74 0 1 0 -7.48 0zM658.03 437.97 a4.98 4.98 0 1 0 9.96 0 a4.98 4.98 0 1 0 -9.96 0zM602.15 436.81 a12.46 12.46 0 1 0 24.92 0 a12.46 12.46 0 1 0 -24.92 0zM705.5 440.2 a3.74 3.74 0 1 0 7.48 0 a3.74 3.74 0 1 0 -7.48 0zM692.02 459.87 a6.23 6.23 0 1 0 12.46 0 a6.23 6.23 0 1 0 -12.46 0zM688.5 413.47 a7.48 7.48 0 1 0 14.96 0 a7.48 7.48 0 1 0 -14.96 0zM624.14 461.97 a3.11 3.11 0 1 0 6.22 0 a3.11 3.11 0 1 0 -6.22 0z" fill="#0eaf8b" fill-rule="nonzero"></path><path d="M383.48 336.43L383.48 338.3L393.31 338.3L393.31 336.43zM390.01 337.36 a3.3 3.3 0 1 0 6.6 0 a3.3 3.3 0 1 0 -6.6 0zM381.13 350.12L380.42 351.84L390.01 355.82L390.72 354.09zM387.07 354.95 a3.3 3.3 0 1 0 6.6 0 a3.3 3.3 0 1 0 -6.6 0zM373.72 361.87L372.4 363.19L382.36 373.14L383.68 371.82zM379.72 372.48 a3.3 3.3 0 1 0 6.6 0 a3.3 3.3 0 1 0 -6.6 0zM362.38 369.88L360.66 370.6L366.95 385.79L368.67 385.08zM364.51 385.44 a3.3 3.3 0 1 0 6.6 0 a3.3 3.3 0 1 0 -6.6 0zM348.83 372.95L346.97 372.95L346.97 382.35L348.83 382.35zM344.6 382.35 a3.3 3.3 0 1 0 6.6 0 a3.3 3.3 0 1 0 -6.6 0zM335.14 370.6L333.42 369.88L330.46 377.03L332.18 377.75zM328.02 377.39 a3.3 3.3 0 1 0 6.6 0 a3.3 3.3 0 1 0 -6.6 0zM323.4 363.19L322.08 361.87L313.15 370.8L314.47 372.12zM310.51 371.46 a3.3 3.3 0 1 0 6.6 0 a3.3 3.3 0 1 0 -6.6 0zM315.38 351.84L314.67 350.12L307.42 353.12L308.14 354.84zM304.48 353.98 a3.3 3.3 0 1 0 6.6 0 a3.3 3.3 0 1 0 -6.6 0zM312.32 338.3L312.32 336.43L303.16 336.43L303.16 338.3zM299.86 337.36 a3.3 3.3 0 1 0 6.6 0 a3.3 3.3 0 1 0 -6.6 0zM314.67 324.61L315.38 322.89L307.39 319.58L306.68 321.3zM303.73 320.44 a3.3 3.3 0 1 0 6.6 0 a3.3 3.3 0 1 0 -6.6 0zM322.08 312.86L323.4 311.54L320.24 308.39L318.93 309.71zM316.28 309.05 a3.3 3.3 0 1 0 6.6 0 a3.3 3.3 0 1 0 -6.6 0zM333.42 304.85L335.14 304.13L332.96 298.86L331.24 299.57zM328.8 299.21 a3.3 3.3 0 1 0 6.6 0 a3.3 3.3 0 1 0 -6.6 0zM346.97 301.78L348.83 301.78L348.83 290.66L346.97 290.66zM344.6 290.66 a3.3 3.3 0 1 0 6.6 0 a3.3 3.3 0 1 0 -6.6 0zM360.66 304.13L362.38 304.85L365.05 298.41L363.32 297.69zM360.88 298.05 a3.3 3.3 0 1 0 6.6 0 a3.3 3.3 0 1 0 -6.6 0zM372.4 311.54L373.72 312.86L383.3 303.28L381.98 301.96zM379.34 302.62 a3.3 3.3 0 1 0 6.6 0 a3.3 3.3 0 1 0 -6.6 0zM380.42 322.89L381.13 324.61L387.4 322.01L386.68 320.29zM383.74 321.15 a3.3 3.3 0 1 0 6.6 0 a3.3 3.3 0 1 0 -6.6 0zM312.3 337.36 a35.6 35.6 0 1 0 71.2 0 a35.6 35.6 0 1 0 -71.2 0z" fill="#488fdb"></path><path d="M373.5 362.1 A34.5968 34.5968 0 0 1 313.7 347.24M313.7 347.24 A71.1936 71.1936 0 0 0 373.5 362.1" fill="#2672c3" fill-rule="nonzero"></path><path d="M358.35 323.37 a7.12 7.12 0 1 0 14.24 0 a7.12 7.12 0 1 0 -14.24 0zM315.36 349.84 a6.05 6.05 0 1 0 12.1 0 a6.05 6.05 0 1 0 -12.1 0zM330.59 367.06 a2.14 2.14 0 1 0 4.28 0 a2.14 2.14 0 1 0 -4.28 0zM342.65 335.17 a6.05 6.05 0 1 0 12.1 0 a6.05 6.05 0 1 0 -12.1 0zM349.51 367.92 a4.27 4.27 0 1 0 8.54 0 a4.27 4.27 0 1 0 -8.54 0zM320.69 322.68 a7.12 7.12 0 1 0 14.24 0 a7.12 7.12 0 1 0 -14.24 0zM367.53 340.87 a3.92 3.92 0 1 0 7.84 0 a3.92 3.92 0 1 0 -7.84 0zM341.65 352.81 a4.63 4.63 0 1 0 9.26 0 a4.63 4.63 0 1 0 -9.26 0zM359.05 352.66 a3.56 3.56 0 1 0 7.12 0 a3.56 3.56 0 1 0 -7.12 0zM342.15 315.06 a5.34 5.34 0 1 0 10.68 0 a5.34 5.34 0 1 0 -10.68 0z" fill="#2672c3" fill-rule="nonzero"></path><path d="M515.21 92.72L515.21 95.05L521.15 95.05L521.15 92.72zM517.02 93.89 a4.13 4.13 0 1 0 8.26 0 a4.13 4.13 0 1 0 -8.26 0zM512.27 109.83L511.38 111.99L517.67 114.59L518.56 112.44zM513.98 113.52 a4.13 4.13 0 1 0 8.26 0 a4.13 4.13 0 1 0 -8.26 0zM503 124.52L501.36 126.16L505.99 130.8L507.64 129.15zM502.68 129.97 a4.13 4.13 0 1 0 8.26 0 a4.13 4.13 0 1 0 -8.26 0zM488.83 134.54L486.67 135.43L490.93 145.71L493.09 144.82zM487.88 145.27 a4.13 4.13 0 1 0 8.26 0 a4.13 4.13 0 1 0 -8.26 0zM471.89 138.37L469.56 138.37L469.56 150.71L471.89 150.71zM466.6 150.71 a4.13 4.13 0 1 0 8.26 0 a4.13 4.13 0 1 0 -8.26 0zM454.78 135.43L452.63 134.54L449.78 141.42L451.93 142.31zM446.73 141.87 a4.13 4.13 0 1 0 8.26 0 a4.13 4.13 0 1 0 -8.26 0zM440.1 126.16L438.45 124.52L430.28 132.69L431.93 134.34zM426.97 133.52 a4.13 4.13 0 1 0 8.26 0 a4.13 4.13 0 1 0 -8.26 0zM430.08 111.99L429.19 109.83L415.48 115.51L416.37 117.67zM411.79 116.59 a4.13 4.13 0 1 0 8.26 0 a4.13 4.13 0 1 0 -8.26 0zM426.25 95.05L426.25 92.72L409.39 92.72L409.39 95.05zM405.26 93.89 a4.13 4.13 0 1 0 8.26 0 a4.13 4.13 0 1 0 -8.26 0zM429.19 77.94L430.08 75.79L423.21 72.95L422.32 75.1zM418.64 74.02 a4.13 4.13 0 1 0 8.26 0 a4.13 4.13 0 1 0 -8.26 0zM438.45 63.26L440.1 61.61L433.54 55.05L431.89 56.7zM428.58 55.87 a4.13 4.13 0 1 0 8.26 0 a4.13 4.13 0 1 0 -8.26 0zM452.63 53.24L454.78 52.35L451.35 44.06L449.2 44.95zM446.14 44.51 a4.13 4.13 0 1 0 8.26 0 a4.13 4.13 0 1 0 -8.26 0zM469.56 49.41L471.89 49.41L471.89 38.75L469.56 38.75zM466.6 38.75 a4.13 4.13 0 1 0 8.26 0 a4.13 4.13 0 1 0 -8.26 0zM486.67 52.35L488.83 53.24L495.36 37.46L493.21 36.57zM490.16 37.01 a4.13 4.13 0 1 0 8.26 0 a4.13 4.13 0 1 0 -8.26 0zM501.36 61.61L503 63.26L511.73 54.53L510.08 52.89zM506.78 53.71 a4.13 4.13 0 1 0 8.26 0 a4.13 4.13 0 1 0 -8.26 0zM511.38 75.79L512.27 77.94L532.56 69.54L531.67 67.39zM527.98 68.46 a4.13 4.13 0 1 0 8.26 0 a4.13 4.13 0 1 0 -8.26 0zM426.23 93.89 a44.5 44.5 0 1 0 89 0 a44.5 44.5 0 1 0 -89 0z" fill="rgba(18, 219, 174, 1)"></path><path d="M431.07 114.06 A43.496 43.496 0 0 1 473 49.45M473 49.45 A88.992 88.992 0 0 0 431.07 114.06" fill="#0eaf8b" fill-rule="nonzero"></path><path d="M475.82 73.07 a8.9 8.9 0 1 0 17.8 0 a8.9 8.9 0 1 0 -17.8 0zM497.19 118.69 a4.45 4.45 0 1 0 8.9 0 a4.45 4.45 0 1 0 -8.9 0zM455.67 106.65 a8.9 8.9 0 1 0 17.8 0 a8.9 8.9 0 1 0 -17.8 0zM433.61 87.38 a8.9 8.9 0 1 0 17.8 0 a8.9 8.9 0 1 0 -17.8 0zM439.63 122.97 a5.78 5.78 0 1 0 11.56 0 a5.78 5.78 0 1 0 -11.56 0zM443.4 62.19 a5.78 5.78 0 1 0 11.56 0 a5.78 5.78 0 1 0 -11.56 0zM494.44 100.36 a4.89 4.89 0 1 0 9.78 0 a4.89 4.89 0 1 0 -9.78 0zM477.63 120.39 a3.56 3.56 0 1 0 7.12 0 a3.56 3.56 0 1 0 -7.12 0zM463.67 58.56 a3.11 3.11 0 1 0 6.22 0 a3.11 3.11 0 1 0 -6.22 0zM481.85 100.2 a1.78 1.78 0 1 0 3.56 0 a1.78 1.78 0 1 0 -3.56 0z" fill="#0eaf8b" fill-rule="nonzero"></path><path d="M201.21 456.25L201.21 458.11L205.62 458.11L205.62 456.25zM202.32 457.18 a3.3 3.3 0 1 0 6.6 0 a3.3 3.3 0 1 0 -6.6 0zM198.85 469.94L198.14 471.66L207.77 475.65L208.48 473.93zM204.82 474.79 a3.3 3.3 0 1 0 6.6 0 a3.3 3.3 0 1 0 -6.6 0zM191.44 481.69L190.13 483L195.74 488.62L197.06 487.3zM193.1 487.96 a3.3 3.3 0 1 0 6.6 0 a3.3 3.3 0 1 0 -6.6 0zM180.1 489.7L178.38 490.41L183.35 502.41L185.07 501.69zM180.91 502.05 a3.3 3.3 0 1 0 6.6 0 a3.3 3.3 0 1 0 -6.6 0zM166.55 492.77L164.69 492.77L164.69 499.17L166.55 499.17zM162.32 499.17 a3.3 3.3 0 1 0 6.6 0 a3.3 3.3 0 1 0 -6.6 0zM152.87 490.41L151.14 489.7L145.01 504.52L146.73 505.23zM142.57 504.88 a3.3 3.3 0 1 0 6.6 0 a3.3 3.3 0 1 0 -6.6 0zM141.12 483L139.8 481.69L135.73 485.76L137.05 487.08zM133.09 486.42 a3.3 3.3 0 1 0 6.6 0 a3.3 3.3 0 1 0 -6.6 0zM133.1 471.66L132.39 469.94L121.1 474.62L121.81 476.34zM118.16 475.48 a3.3 3.3 0 1 0 6.6 0 a3.3 3.3 0 1 0 -6.6 0zM130.04 458.11L130.04 456.25L120.88 456.25L120.88 458.11zM117.58 457.18 a3.3 3.3 0 1 0 6.6 0 a3.3 3.3 0 1 0 -6.6 0zM132.39 444.43L133.1 442.7L119.88 437.23L119.17 438.95zM116.23 438.09 a3.3 3.3 0 1 0 6.6 0 a3.3 3.3 0 1 0 -6.6 0zM139.8 432.68L141.12 431.36L129.32 419.56L128 420.88zM125.36 420.22 a3.3 3.3 0 1 0 6.6 0 a3.3 3.3 0 1 0 -6.6 0zM151.14 424.66L152.87 423.95L146.59 408.8L144.87 409.51zM142.43 409.15 a3.3 3.3 0 1 0 6.6 0 a3.3 3.3 0 1 0 -6.6 0zM164.69 421.6L166.55 421.6L166.55 409.13L164.69 409.13zM162.32 409.13 a3.3 3.3 0 1 0 6.6 0 a3.3 3.3 0 1 0 -6.6 0zM178.38 423.95L180.1 424.66L183.77 415.79L182.05 415.08zM179.61 415.44 a3.3 3.3 0 1 0 6.6 0 a3.3 3.3 0 1 0 -6.6 0zM190.13 431.36L191.44 432.68L197.84 426.29L196.52 424.97zM193.88 425.63 a3.3 3.3 0 1 0 6.6 0 a3.3 3.3 0 1 0 -6.6 0zM198.14 442.7L198.85 444.43L210.14 439.75L209.42 438.03zM206.48 438.89 a3.3 3.3 0 1 0 6.6 0 a3.3 3.3 0 1 0 -6.6 0zM130.02 457.18 a35.6 35.6 0 1 0 71.2 0 a35.6 35.6 0 1 0 -71.2 0z" fill="#488fdb"></path><path d="M191.73 432.99 A34.5968 34.5968 0 0 1 173.59 491.88M173.59 491.88 A71.1936 71.1936 0 0 0 191.73 432.99" fill="#2672c3" fill-rule="nonzero"></path><path d="M149.28 433.84 a7.12 7.12 0 1 0 14.24 0 a7.12 7.12 0 1 0 -14.24 0zM140.18 459.3 a7.12 7.12 0 1 0 14.24 0 a7.12 7.12 0 1 0 -14.24 0zM146.76 484.07 a4.98 4.98 0 1 0 9.96 0 a4.98 4.98 0 1 0 -9.96 0zM161.4 451.46 a6.76 6.76 0 1 0 13.52 0 a6.76 6.76 0 1 0 -13.52 0zM163.77 480.32 a6.41 6.41 0 1 0 12.82 0 a6.41 6.41 0 1 0 -12.82 0zM185.79 455.19 a7.12 7.12 0 1 0 14.24 0 a7.12 7.12 0 1 0 -14.24 0zM182.55 473.69 a2.14 2.14 0 1 0 4.28 0 a2.14 2.14 0 1 0 -4.28 0zM182.95 435.77 a4.63 4.63 0 1 0 9.26 0 a4.63 4.63 0 1 0 -9.26 0zM170.45 430.19 a1.78 1.78 0 1 0 3.56 0 a1.78 1.78 0 1 0 -3.56 0zM131.36 452.95 a1.42 1.42 0 1 0 2.84 0 a1.42 1.42 0 1 0 -2.84 0z" fill="#2672c3" fill-rule="nonzero"></path><path d="M1011.62 132.24L1011.62 134.11L1022.3 134.11L1022.3 132.24zM1019 133.17 a3.3 3.3 0 1 0 6.6 0 a3.3 3.3 0 1 0 -6.6 0zM1009.27 145.93L1008.56 147.65L1021.36 152.95L1022.07 151.23zM1018.41 152.09 a3.3 3.3 0 1 0 6.6 0 a3.3 3.3 0 1 0 -6.6 0zM1001.86 157.68L1000.54 158.99L1010.13 168.58L1011.45 167.27zM1007.49 167.92 a3.3 3.3 0 1 0 6.6 0 a3.3 3.3 0 1 0 -6.6 0zM990.52 165.69L988.8 166.41L994.49 180.14L996.21 179.43zM992.05 179.79 a3.3 3.3 0 1 0 6.6 0 a3.3 3.3 0 1 0 -6.6 0zM976.97 168.76L975.11 168.76L975.11 173.51L976.97 173.51zM972.74 173.51 a3.3 3.3 0 1 0 6.6 0 a3.3 3.3 0 1 0 -6.6 0zM963.28 166.41L961.56 165.69L955.25 180.94L956.97 181.65zM952.81 181.29 a3.3 3.3 0 1 0 6.6 0 a3.3 3.3 0 1 0 -6.6 0zM951.54 158.99L950.22 157.68L941.42 166.48L942.73 167.8zM938.77 167.14 a3.3 3.3 0 1 0 6.6 0 a3.3 3.3 0 1 0 -6.6 0zM943.52 147.65L942.81 145.93L928.36 151.92L929.07 153.64zM925.41 152.78 a3.3 3.3 0 1 0 6.6 0 a3.3 3.3 0 1 0 -6.6 0zM940.46 134.11L940.46 132.24L927.34 132.24L927.34 134.11zM924.04 133.17 a3.3 3.3 0 1 0 6.6 0 a3.3 3.3 0 1 0 -6.6 0zM942.81 120.42L943.52 118.7L935.53 115.38L934.82 117.11zM931.87 116.25 a3.3 3.3 0 1 0 6.6 0 a3.3 3.3 0 1 0 -6.6 0zM950.22 108.67L951.54 107.35L942.54 98.35L941.22 99.67zM938.58 99.01 a3.3 3.3 0 1 0 6.6 0 a3.3 3.3 0 1 0 -6.6 0zM961.56 100.65L963.28 99.94L959.21 90.11L957.49 90.82zM955.05 90.47 a3.3 3.3 0 1 0 6.6 0 a3.3 3.3 0 1 0 -6.6 0zM975.11 97.59L976.97 97.59L976.97 89.61L975.11 89.61zM972.74 89.61 a3.3 3.3 0 1 0 6.6 0 a3.3 3.3 0 1 0 -6.6 0zM988.8 99.94L990.52 100.65L994.82 90.27L993.1 89.56zM990.66 89.91 a3.3 3.3 0 1 0 6.6 0 a3.3 3.3 0 1 0 -6.6 0zM1000.54 107.35L1001.86 108.67L1005.21 105.32L1003.89 104zM1001.25 104.66 a3.3 3.3 0 1 0 6.6 0 a3.3 3.3 0 1 0 -6.6 0zM1008.56 118.7L1009.27 120.42L1022.65 114.88L1021.94 113.15zM1018.99 114.01 a3.3 3.3 0 1 0 6.6 0 a3.3 3.3 0 1 0 -6.6 0zM940.44 133.17 a35.6 35.6 0 1 0 71.2 0 a35.6 35.6 0 1 0 -71.2 0z" fill="#488fdb"></path><path d="M944.55 149.77 A34.5968 34.5968 0 0 1 977.34 97.6M977.34 97.6 A71.1936 71.1936 0 0 0 944.55 149.77" fill="#2672c3" fill-rule="nonzero"></path><path d="M970.74 144.56 a7.12 7.12 0 1 0 14.24 0 a7.12 7.12 0 1 0 -14.24 0zM965.7 111.43 a7.12 7.12 0 1 0 14.24 0 a7.12 7.12 0 1 0 -14.24 0zM984.15 130.59 a1.78 1.78 0 1 0 3.56 0 a1.78 1.78 0 1 0 -3.56 0zM942.16 143.21 a3.56 3.56 0 1 0 7.12 0 a3.56 3.56 0 1 0 -7.12 0zM954.56 135.5 a4.63 4.63 0 1 0 9.26 0 a4.63 4.63 0 1 0 -9.26 0zM994.75 132.42 a4.27 4.27 0 1 0 8.54 0 a4.27 4.27 0 1 0 -8.54 0zM973.32 163.89 a4.63 4.63 0 1 0 9.26 0 a4.63 4.63 0 1 0 -9.26 0zM986.64 107.63 a2.14 2.14 0 1 0 4.28 0 a2.14 2.14 0 1 0 -4.28 0zM989.56 161.44 a2.85 2.85 0 1 0 5.7 0 a2.85 2.85 0 1 0 -5.7 0zM951.28 110.33 a3.56 3.56 0 1 0 7.12 0 a3.56 3.56 0 1 0 -7.12 0z" fill="#2672c3" fill-rule="nonzero"></path></g><defs><mask id="SvgjsMask1008"><rect width="1440" height="560" fill="#ffffff"></rect></mask></defs></svg>